<svg viewBox="0 0 200 200" xmlns="http://www.w3.org/2000/svg">
  <defs>
    <pattern id="dots-commis" width="9" height="9" patternUnits="userSpaceOnUse">
      <rect width="9" height="9" fill="#FFFFFF"/>
      <circle cx="2.2" cy="2.2" r="1.5" fill="#171310"/>
    </pattern>
  </defs>
  <circle cx="100" cy="100" r="99" fill="#FFC93C"/>
  <g fill="none" stroke="#171310" stroke-width="4" stroke-linejoin="round" stroke-linecap="round">
    
    <path d="M100,48 C132,46 158,64 160,97 C162,132 144,160 106,164 C70,168 42,146 40,108 C38,74 64,50 100,48 Z" fill="url(#dots-commis)"/>
    <path d="M66,60 Q62,32 100,30 Q138,32 134,60 Q100,50 66,60 Z" fill="#FFFFFF"/>
    <path d="M70,58 L70,72 Q100,78 130,72 L130,58 Z" fill="#FFFFFF"/>
    <circle cx="78" cy="102" r="4" fill="#171310" stroke="none"/>
    <circle cx="122" cy="102" r="4" fill="#171310" stroke="none"/>
    <path d="M70,92 Q78,86 86,92 M114,92 Q122,86 130,92" stroke-width="3"/>
    <path d="M84,132 Q100,140 116,132" />
    <path d="M146,84 Q152,92 146,102 Q152,92 158,90 Z" fill="#FFFFFF"/>
  
  </g>
</svg>