<svg xmlns="http://www.w3.org/2000/svg" viewBox="0 0 200 200">
  <defs>
    <pattern id="dots" width="9" height="9" patternUnits="userSpaceOnUse">
      <circle cx="2.2" cy="2.2" r="1.5" fill="#171310"/>
    </pattern>
  </defs>
  <circle cx="100" cy="100" r="99" fill="#FFFFFF"/>
  <g fill="none" stroke="#171310" stroke-width="4" stroke-linejoin="round" stroke-linecap="round">
    <path d="M100,48 C132,46 158,64 160,97 C162,132 144,160 106,164 C70,168 42,146 40,108 C38,74 64,50 100,48 Z" fill="url(#dots)"/>
    <path d="M48,82 Q100,60 152,82 L148,102 Q100,84 52,102 Z" fill="#FFFFFF"/>
    <circle cx="70" cy="118" r="2.6" fill="#171310" stroke="none"/>
    <circle cx="134" cy="124" r="2.6" fill="#171310" stroke="none"/>
    <circle cx="100" cy="130" r="2.6" fill="#171310" stroke="none"/>
    <circle cx="118" cy="112" r="2.6" fill="#171310" stroke="none"/>
    <circle cx="78" cy="102" r="4" fill="#171310" stroke="none"/>
    <circle cx="122" cy="102" r="4" fill="#171310" stroke="none"/>
    <path d="M66,132 Q100,150 134,132" fill="#171310" stroke="none"/>
    <path d="M66,132 Q56,122 64,112" stroke-width="4"/>
    <path d="M134,132 Q144,122 136,112" stroke-width="4"/>
  
  </g>
</svg>
