<svg xmlns="http://www.w3.org/2000/svg" viewBox="0 0 200 200">
  <defs>
    <pattern id="dots" width="9" height="9" patternUnits="userSpaceOnUse">
      <circle cx="2.2" cy="2.2" r="1.5" fill="#171310"/>
    </pattern>
  </defs>
  <circle cx="100" cy="100" r="99" fill="#FFFFFF"/>
  <g fill="none" stroke="#171310" stroke-width="4" stroke-linejoin="round" stroke-linecap="round">
    <path d="M50,64 L68,20 L86,66 Z" fill="#FFFFFF"/>
    <path d="M150,64 L132,20 L114,66 Z" fill="#FFFFFF"/>
    <path d="M100,48 C132,46 158,64 160,97 C162,132 144,160 106,164 C70,168 42,146 40,108 C38,74 64,50 100,48 Z" fill="url(#dots)"/>
    <path d="M78,142 Q100,158 122,142" />
    <ellipse cx="100" cy="146" rx="16" ry="12" fill="#FFFFFF"/>
    <circle cx="100" cy="144" r="3" fill="#171310" stroke="none"/>
    <path d="M56,140 L28,132 M56,148 L28,144" stroke-width="3"/>
    <path d="M144,140 L172,132 M144,148 L172,144" stroke-width="3"/>
    <circle cx="80" cy="100" r="4" fill="#171310" stroke="none"/>
    <circle cx="120" cy="100" r="4" fill="#171310" stroke="none"/>
    <ellipse cx="128" cy="58" rx="18" ry="10" fill="#FFFFFF" transform="rotate(20 128 58)"/>
  
  </g>
</svg>
