<svg xmlns="http://www.w3.org/2000/svg" viewBox="0 0 200 200">
  <style>.toon *{stroke:#241A14;stroke-width:6;stroke-linejoin:round;stroke-linecap:round;}</style>
  <g class="toon">
    <rect x="80" y="152" width="40" height="28" rx="8" fill="#EFE2C8"/>
    <path d="M62,88 L78,50 L94,90 Z" fill="#9AA0A6"/>
    <path d="M138,88 L122,50 L106,90 Z" fill="#9AA0A6"/>
    <path d="M67,86 L78,62 L88,88 Z" fill="#E8B6B0" stroke="none"/>
    <path d="M133,86 L122,62 L112,88 Z" fill="#E8B6B0" stroke="none"/>
    <circle cx="100" cy="118" r="54" fill="#9AA0A6"/>
    <ellipse cx="100" cy="140" rx="20" ry="15" fill="#DCE0E2"/>
    <ellipse cx="100" cy="138" rx="6" ry="5" fill="#E8B6B0" stroke="none"/>
    <circle cx="83" cy="108" r="5" fill="#241A14" stroke="none"/>
    <circle cx="117" cy="108" r="5" fill="#241A14" stroke="none"/>
    <path d="M60,140 L34,134 M60,146 L34,146" stroke-width="3.5"/>
    <path d="M140,140 L166,134 M140,146 L166,146" stroke-width="3.5"/>
    <ellipse cx="112" cy="56" rx="20" ry="12" fill="#FBF8F2" transform="rotate(18 112 56)"/>
  </g>
</svg>
